<svg width="369" height="218" fill="none" xmlns="http://www.w3.org/2000/svg"><path d="M11.9 187.6c-2.7 0-4.9 1-6.5 2.7a10.7 10.7 0 00-2.3 7.3c0 3.2.7 5.7 2.2 7.4a8.2 8.2 0 006.5 2.6c1.8 0 3.7-.3 6-.9v2.5c-1.8.6-3.9 1-6.4 1-3.6 0-6.5-1.2-8.4-3.3-2-2.2-3-5.3-3-9.3 0-2.5.5-4.7 1.4-6.6 1-2 2.4-3.4 4.2-4.4a15.5 15.5 0 0113.2-.1l-1.3 2.4c-1.9-.8-3.7-1.3-5.6-1.3zM35.2 193.9h-6v15.9h-2.8v-15.9h-6v-2.4h14.8v2.4zM47.5 210.1c-1.2 0-2.3-.2-3.3-.6-1-.5-1.8-1.1-2.5-2h-.2l.2 3v7.5H39v-26.5h2.3l.4 2.5h.1c.7-1 1.6-1.7 2.5-2.1 1-.5 2-.7 3.3-.7 2.5 0 4.4.8 5.7 2.5 1.4 1.6 2 4 2 7s-.6 5.3-2 7a6.9 6.9 0 01-5.7 2.4zm-.4-16.5c-1.9 0-3.2.5-4 1.5-1 1-1.4 2.7-1.4 5v.6c0 2.5.4 4.4 1.3 5.5.9 1 2.3 1.6 4.2 1.6 1.6 0 2.8-.6 3.8-1.9a9 9 0 001.3-5.3c0-2.3-.4-4-1.3-5.2a4.5 4.5 0 00-3.9-1.8zM71.6 209.8l-.6-2.6h-.1c-1 1.1-1.9 2-2.8 2.3-1 .4-2 .6-3.4.6-1.9 0-3.3-.4-4.4-1.4-1-.9-1.5-2.2-1.5-4 0-3.6 3-5.6 9-5.8h3.1v-1.2c0-1.4-.3-2.5-1-3.1-.6-.7-1.6-1-3-1-1.5 0-3.2.4-5.2 1.3l-.8-2.1a13.4 13.4 0 016.2-1.6c2.2 0 3.9.5 5 1.5 1 1 1.5 2.5 1.5 4.6v12.5h-2zm-6.4-2c1.8 0 3.1-.4 4.1-1.4 1-1 1.5-2.2 1.5-4v-1.6l-2.8.1c-2.2.1-3.8.5-4.8 1-1 .7-1.5 1.6-1.5 2.9 0 1 .3 1.7 1 2.3.5.5 1.4.8 2.5.8zM82.3 191.5v7.7h10.3v-7.7h2.9v18.3h-2.9v-8.2H82.3v8.2h-2.9v-18.3h2.9zM104 191.5v14.6l-.1 1 10-15.6h3.5v18.3h-2.6V196.4l.1-2.1-10 15.5h-3.5v-18.3h2.7zM141.5 216.1h-2.8v-6.3h-15.3v-18.3h2.8v16h9.8v-16h2.8v16h2.7v8.6zM156.5 209.8l-.6-2.6h-.1c-1 1.1-1.9 2-2.8 2.3-1 .4-2 .6-3.4.6-1.9 0-3.3-.4-4.4-1.4-1-.9-1.5-2.2-1.5-4 0-3.6 3-5.6 9-5.8h3.1v-1.2c0-1.4-.3-2.5-1-3.1-.6-.7-1.5-1-3-1s-3.2.4-5.2 1.3l-.8-2.1a13.3 13.3 0 016.2-1.6c2.3 0 3.9.5 5 1.5 1 1 1.6 2.5 1.6 4.6v12.5h-2.1zm-6.4-2c1.8 0 3.2-.4 4.1-1.4 1-1 1.6-2.2 1.6-4v-1.6l-2.9.1c-2.2.1-3.8.5-4.8 1-1 .7-1.5 1.6-1.5 2.9 0 1 .3 1.7 1 2.3a4 4 0 002.5.8zM192.6 209.8h-3v-11.5h-13v11.5h-2.8v-24.4h2.9v10.4h13v-10.4h2.9v24.4zM206.8 210.1c-2.8 0-5-.8-6.5-2.4a9.5 9.5 0 01-2.4-6.9c0-3 .8-5.3 2.2-7a7.4 7.4 0 016-2.6 7 7 0 015.5 2.3c1.3 1.5 2 3.4 2 6v1.7h-12.8c0 2.1.6 3.7 1.7 4.9 1 1 2.5 1.6 4.4 1.6 2 0 4-.4 6-1.2v2.4a14.5 14.5 0 01-6.1 1.2zm-.8-16.6c-1.5 0-2.7.5-3.5 1.4-1 1-1.4 2.3-1.6 4h9.7c0-1.7-.4-3-1.2-4-.8-1-2-1.4-3.4-1.4zM246.6 209.8h-2.9v-11.5h-13v11.5h-2.9v-24.4h3v10.4h13v-10.4h2.8v24.4zM264.4 209.8l-.6-2.6c-1 1.1-2 2-2.9 2.3-.9.4-2 .6-3.4.6-1.8 0-3.3-.4-4.3-1.4-1-.9-1.6-2.2-1.6-4 0-3.6 3-5.6 9-5.8h3.1v-1.2c0-1.4-.3-2.5-.9-3.1-.6-.7-1.6-1-3-1-1.5 0-3.3.4-5.2 1.3l-1-2.1a13.4 13.4 0 016.4-1.6c2.2 0 3.8.5 4.9 1.5 1 1 1.6 2.5 1.6 4.6v12.5h-2.1zm-6.3-2c1.7 0 3-.4 4-1.4 1-1 1.6-2.2 1.6-4v-1.6l-2.8.1c-2.3.1-3.9.5-4.9 1-1 .7-1.4 1.6-1.4 2.9 0 1 .3 1.7.9 2.3.6.5 1.5.8 2.6.8zM275 191.5v11.6l-.2 3v1l10-15.6h3.5v18.3h-2.6V196.4l.1-2.1-10 15.5h-3.5v-18.3h2.6zm5.2-2.4c-2 0-3.6-.4-4.5-1.2-1-.8-1.5-2-1.6-3.9h2.6c0 1.2.4 2 1 2.4.4.5 1.3.7 2.6.7 1.2 0 2-.2 2.6-.7.5-.5.9-1.3 1-2.4h2.7c-.2 1.8-.7 3-1.8 3.9-1 .8-2.5 1.2-4.6 1.2zM310.4 216.1h-2.8v-6.3h-13v6.3H292v-8.7h1.4c1.5-2 2.7-4.4 3.6-7.1.8-2.7 1.3-5.6 1.3-8.8h9.4v16h2.7v8.6zm-5.4-8.7v-13.7h-4.2a30 30 0 01-4.5 13.7h8.7zM322 210.1c-2.8 0-5-.8-6.6-2.4a9.5 9.5 0 01-2.3-6.9c0-3 .7-5.3 2.2-7a7.4 7.4 0 015.9-2.6 7 7 0 015.5 2.3c1.4 1.5 2 3.4 2 6v1.7H316c0 2.1.6 3.7 1.6 4.9 1 1 2.5 1.6 4.4 1.6 2 0 4-.4 6-1.2v2.4a14.5 14.5 0 01-6 1.2zm-.8-16.6c-1.5 0-2.7.5-3.6 1.4-.9 1-1.4 2.3-1.6 4h9.7c0-1.7-.4-3-1.2-4-.7-1-1.9-1.4-3.3-1.4zM336.4 191.5v7.7h10.3v-7.7h2.9v18.3h-2.9v-8.2h-10.3v8.2h-2.9v-18.3h2.9zM367 209.8l-.6-2.6h-.2c-.9 1.1-1.8 2-2.8 2.3-.9.4-2 .6-3.4.6-1.8 0-3.3-.4-4.3-1.4-1-.9-1.6-2.2-1.6-4 0-3.6 3-5.6 9-5.8h3.2v-1.2c0-1.4-.4-2.5-1-3.1-.6-.7-1.6-1-3-1-1.5 0-3.3.4-5.2 1.3l-.9-2.1a13.4 13.4 0 016.3-1.6c2.2 0 3.8.5 4.9 1.5 1 1 1.6 2.5 1.6 4.6v12.5h-2zm-6.4-2c1.7 0 3-.4 4-1.4 1-1 1.6-2.2 1.6-4v-1.6l-2.8.1c-2.3.1-3.9.5-4.9 1-1 .7-1.4 1.6-1.4 2.9 0 1 .3 1.7.9 2.3.6.5 1.5.8 2.6.8zM119.6 123h-23v35.9h-17v-36H4v-15.5L77.8 1.6h18.8v105.2h23v16.1zm-40-16.2v-52c0-10.2.4-21.7 1.1-34.6h-.8a161 161 0 01-9.6 17l-48.6 69.6h58zM237.8 80.4c0 27-4.2 47.3-12.7 60.6-8.5 13.3-21.4 20-38.9 20a42.6 42.6 0 01-38.2-20.4c-8.7-13.7-13-33.8-13-60.2 0-27.2 4.2-47.4 12.6-60.6A42.7 42.7 0 01186.2 0c17 0 29.7 6.9 38.4 20.6 8.8 13.8 13.2 33.7 13.2 59.8zm-85 0c0 22.8 2.7 39.4 8 49.8a26.7 26.7 0 0025.4 15.5c11.8 0 20.3-5.2 25.6-15.7 5.3-10.6 8-27 8-49.6 0-22.4-2.7-38.9-8-49.3a26.6 26.6 0 00-25.6-15.7 26.7 26.7 0 00-25.4 15.5c-5.3 10.3-8 26.8-8 49.5zM369 123h-23v35.9h-17v-36h-75.6v-15.5L327.2 1.6h18.7v105.2H369v16.1zm-40-16.2v-52c0-10.2.4-21.7 1-34.6h-.8c-3.4 6.9-6.6 12.5-9.6 17L271 106.8h58z" fill="#000"/></svg>
