<svg width="26" height="26" viewBox="0 0 26 26" fill="none" xmlns="http://www.w3.org/2000/svg">
<path d="M8.97772 0H3.00666C1.3488 0 0 1.3488 0 3.00666V8.97772C0 10.6356 1.3488 11.9844 3.00666 11.9844H8.97772C10.6356 11.9844 11.9844 10.6356 11.9844 8.97772V3.00666C11.9844 1.3488 10.6356 0 8.97772 0ZM9.95312 8.97772C9.95312 9.51554 9.51554 9.95312 8.97772 9.95312H3.00666C2.46883 9.95312 2.03125 9.51554 2.03125 8.97772V3.00666C2.03125 2.46883 2.46883 2.03125 3.00666 2.03125H8.97772C9.51554 2.03125 9.95312 2.46883 9.95312 3.00666V8.97772Z"/>
<path d="M22.9531 0H17.0625C15.3825 0 14.0156 1.36683 14.0156 3.04688V8.9375C14.0156 10.6175 15.3825 11.9844 17.0625 11.9844H22.9531C24.6332 11.9844 26 10.6175 26 8.9375V3.04688C26 1.36683 24.6332 0 22.9531 0ZM23.9688 8.9375C23.9688 9.49752 23.5131 9.95312 22.9531 9.95312H17.0625C16.5025 9.95312 16.0469 9.49752 16.0469 8.9375V3.04688C16.0469 2.48686 16.5025 2.03125 17.0625 2.03125H22.9531C23.5131 2.03125 23.9688 2.48686 23.9688 3.04688V8.9375Z"/>
<path d="M8.97772 14.0156H3.00666C1.3488 14.0156 0 15.3644 0 17.0223V22.9933C0 24.6512 1.3488 26 3.00666 26H8.97772C10.6356 26 11.9844 24.6512 11.9844 22.9933V17.0223C11.9844 15.3644 10.6356 14.0156 8.97772 14.0156ZM9.95312 22.9933C9.95312 23.5312 9.51554 23.9688 8.97772 23.9688H3.00666C2.46883 23.9688 2.03125 23.5312 2.03125 22.9933V17.0223C2.03125 16.4845 2.46883 16.0469 3.00666 16.0469H8.97772C9.51554 16.0469 9.95312 16.4845 9.95312 17.0223V22.9933Z"/>
<path d="M22.9531 14.0156H17.0625C15.3825 14.0156 14.0156 15.3825 14.0156 17.0625V22.9531C14.0156 24.6332 15.3825 26 17.0625 26H22.9531C24.6332 26 26 24.6332 26 22.9531V17.0625C26 15.3825 24.6332 14.0156 22.9531 14.0156ZM23.9688 22.9531C23.9688 23.5131 23.5131 23.9688 22.9531 23.9688H17.0625C16.5025 23.9688 16.0469 23.5131 16.0469 22.9531V17.0625C16.0469 16.5025 16.5025 16.0469 17.0625 16.0469H22.9531C23.5131 16.0469 23.9688 16.5025 23.9688 17.0625V22.9531Z"/>
</svg>
