<svg width="8" height="12" viewBox="0 0 8 12" fill="none" xmlns="http://www.w3.org/2000/svg">
<path d="M7.1988 0.0024968L5.53892 0C3.67411 0 2.46899 1.15914 2.46899 2.95322V4.31485H0.800062C0.655846 4.31485 0.539062 4.42446 0.539062 4.55966V6.53251C0.539062 6.66771 0.655979 6.77719 0.800062 6.77719H2.46899V11.7553C2.46899 11.8905 2.58577 12 2.72999 12H4.90746C5.05168 12 5.16846 11.8904 5.16846 11.7553V6.77719H7.11983C7.26405 6.77719 7.38083 6.66771 7.38083 6.53251L7.38163 4.55966C7.38163 4.49474 7.35406 4.43257 7.30519 4.38663C7.25632 4.34069 7.18974 4.31485 7.1205 4.31485H5.16846V3.16058C5.16846 2.60579 5.30948 2.32415 6.08036 2.32415L7.19853 2.32377C7.34261 2.32377 7.45939 2.21416 7.45939 2.07909V0.247183C7.45939 0.112231 7.34274 0.00274648 7.1988 0.0024968Z" fill="#444444"/>
</svg>
