<svg width="19" height="18" viewBox="0 0 19 18" fill="none" xmlns="http://www.w3.org/2000/svg">
<path fill-rule="evenodd" clip-rule="evenodd" d="M11.6234 1.05966C12.2707 0.791476 12.9644 0.653442 13.665 0.653442C14.3656 0.653442 15.0593 0.791476 15.7065 1.05966C16.3538 1.32784 16.9418 1.72091 17.4371 2.21643C17.9325 2.71165 18.3255 3.29962 18.5936 3.94674C18.8618 4.59397 18.9998 5.2877 18.9998 5.9883C18.9998 6.68889 18.8618 7.38262 18.5936 8.02985C18.3255 8.67703 17.9324 9.26504 17.437 9.76029C17.4369 9.76034 17.4369 9.76038 17.4368 9.76042L10.0703 17.127C9.92965 17.2676 9.73889 17.3466 9.53998 17.3466C9.34106 17.3466 9.1503 17.2676 9.00965 17.127L1.64298 9.76029C0.642583 8.7599 0.0805664 7.40307 0.0805664 5.9883C0.0805664 4.57352 0.642583 3.2167 1.64298 2.2163C2.64337 1.2159 4.0002 0.653888 5.41498 0.653888C6.82975 0.653888 8.18658 1.2159 9.18697 2.2163L9.53998 2.5693L9.89285 2.21643C10.3881 1.72091 10.9762 1.32784 11.6234 1.05966ZM13.665 2.15344C13.1614 2.15344 12.6628 2.25265 12.1976 2.44541C11.7324 2.63817 11.3097 2.92069 10.9538 3.27684L10.9536 3.27696L10.0703 4.16029C9.92965 4.30095 9.73889 4.37996 9.53998 4.37996C9.34106 4.37996 9.1503 4.30095 9.00965 4.16029L8.12631 3.27696C7.40722 2.55787 6.43192 2.15389 5.41498 2.15389C4.39803 2.15389 3.42273 2.55787 2.70364 3.27696C1.98455 3.99605 1.58057 4.97135 1.58057 5.9883C1.58057 7.00525 1.98455 7.98054 2.70364 8.69963L9.53998 15.536L16.3763 8.69963L16.3764 8.69951C16.7326 8.34353 17.0151 7.92087 17.2079 7.45567C17.4006 6.99047 17.4998 6.49185 17.4998 5.9883C17.4998 5.48475 17.4006 4.98613 17.2079 4.52093C17.0151 4.05573 16.7326 3.63307 16.3764 3.27709L16.3762 3.27684C16.0202 2.92069 15.5975 2.63817 15.1323 2.44541C14.6671 2.25265 14.1685 2.15344 13.665 2.15344Z" fill="#444444"/>
</svg>
