<svg width="80" height="60" viewBox="0 0 80 60" fill="none" xmlns="http://www.w3.org/2000/svg">
<path d="M72.9688 0H7.03125C3.15906 0 0 3.10708 0 6.92308V53.0769C0 56.88 3.145 60 7.03125 60H72.9688C76.8313 60 80 56.9034 80 53.0769V6.92308C80 3.12 76.855 0 72.9688 0ZM71.9978 4.61538L40.1491 35.9743L8.02484 4.61538H71.9978ZM4.6875 52.1212V7.85677L27.2623 29.8937L4.6875 52.1212ZM8.00203 55.3846L30.5911 33.1431L38.5062 40.8695C39.4225 41.764 40.9011 41.7611 41.8136 40.8625L49.5312 33.2635L71.998 55.3846H8.00203ZM75.3125 52.1211L52.8458 30L75.3125 7.87877V52.1211Z" fill="black"/>
</svg>
