<svg width="100" height="80" viewBox="0 0 100 80" fill="none" xmlns="http://www.w3.org/2000/svg">
<path d="M72.7194 0H5.63156C2.5262 0 0 2.52054 0 5.61873V45.7774C0 48.8756 2.5262 51.3963 5.63156 51.3963H9.98175V66.3465C9.98175 67.2983 10.5564 68.1568 11.4381 68.5213C11.73 68.6421 12.0366 68.7006 12.3406 68.7006C12.9547 68.7006 13.5578 68.4612 14.0093 68.011L30.6613 51.3965H34.0023C35.3053 51.3965 36.3614 50.3427 36.3614 49.0426C36.3614 47.7423 35.3049 46.6885 34.0023 46.6885C34.0023 46.6885 29.5702 46.6916 29.5239 46.6963C28.9747 46.7335 28.4355 46.9592 28.0156 47.378L14.7001 60.6636C14.7001 60.6636 14.696 48.8937 14.6884 48.8327C14.582 47.631 13.5717 46.6885 12.3398 46.6885H5.63156C5.128 46.6885 4.71859 46.2798 4.71859 45.7776V5.61873C4.71859 5.1163 5.12819 4.70781 5.63156 4.70781H72.7194C73.2229 4.70781 73.6323 5.1165 73.6323 5.61873V21.0259C73.6323 22.326 74.6889 23.3798 75.9915 23.3798C77.2942 23.3798 78.3507 22.326 78.3507 21.0259V5.61873C78.3507 2.52054 75.8245 0 72.7194 0Z" fill="black"/>
<path d="M94.3691 28.7922H47.4089C44.3037 28.7922 41.7773 31.3128 41.7773 34.4112V61.8071C41.7773 64.9053 44.3035 67.426 47.4089 67.426H76.8088L88.72 79.3105C89.1714 79.7609 89.7748 80.0001 90.3887 80.0001C90.6926 80.0001 90.9993 79.9414 91.2911 79.8208C92.1725 79.4563 92.7475 78.5982 92.7475 77.646V67.4258H94.3689C97.4741 67.4258 100.001 64.9053 100.001 61.8069V34.411C100.001 31.3128 97.4745 28.7922 94.3691 28.7922ZM95.2823 61.8071C95.2823 62.3093 94.8727 62.718 94.3693 62.718H90.3893C89.1478 62.718 88.1325 63.6753 88.0393 64.8905C88.0332 64.9419 88.0293 71.9631 88.0293 71.9631L79.4633 63.4161C79.4543 63.4072 79.445 63.3988 79.436 63.3898C79.4024 63.3571 79.3705 63.3286 79.3405 63.3031C78.9252 62.9398 78.3828 62.7178 77.7874 62.7178H47.4089C46.9053 62.7178 46.4959 62.3092 46.4959 61.8069V34.411C46.4959 33.9085 46.9055 33.5 47.4089 33.5H94.3693C94.8727 33.5 95.2823 33.9087 95.2823 34.411V61.8071Z" fill="black"/>
<path d="M70.8904 45.7551C69.5882 45.7551 68.5312 46.8097 68.5312 48.109C68.5312 49.4084 69.5882 50.4629 70.8904 50.4629C72.1929 50.4629 73.2496 49.4084 73.2496 48.109C73.2496 46.8097 72.1927 45.7551 70.8904 45.7551Z" fill="black"/>
<path d="M60.6447 15.5627H17.7069C16.404 15.5627 15.3477 16.6165 15.3477 17.9166C15.3477 19.2168 16.4042 20.2706 17.7069 20.2706H60.6447C61.9475 20.2706 63.0039 19.2168 63.0039 17.9166C63.0039 16.6165 61.9475 15.5627 60.6447 15.5627Z" fill="black"/>
<path d="M34.0022 31.1255H17.7069C16.404 31.1255 15.3477 32.1793 15.3477 33.4794C15.3477 34.7795 16.4042 35.8333 17.7069 35.8333H34.0022C35.3053 35.8333 36.3614 34.7795 36.3614 33.4794C36.3614 32.1793 35.3051 31.1255 34.0022 31.1255Z" fill="black"/>
<path d="M59.9334 45.7551C58.6313 45.7551 57.5742 46.8097 57.5742 48.109C57.5742 49.4084 58.6313 50.4629 59.9334 50.4629C61.2359 50.4629 62.2926 49.4084 62.2926 48.109C62.2926 46.8097 61.2359 45.7551 59.9334 45.7551Z" fill="black"/>
<path d="M81.8475 45.7551C80.5452 45.7551 79.4883 46.8097 79.4883 48.109C79.4883 49.4084 80.5452 50.4629 81.8475 50.4629C83.1499 50.4629 84.2067 49.4084 84.2067 48.109C84.2067 46.8097 83.1497 45.7551 81.8475 45.7551Z" fill="black"/>
</svg>
