<svg width="81" height="80" viewBox="0 0 81 80" fill="none" xmlns="http://www.w3.org/2000/svg">
<path d="M63.2603 49.5572C61.6201 47.8519 59.6417 46.9401 57.5449 46.9401C55.4651 46.9401 53.4697 47.835 51.7619 49.5404L46.4185 54.859C45.9788 54.6226 45.5392 54.4031 45.1165 54.1836C44.5077 53.8797 43.9328 53.5926 43.4424 53.2887C38.4372 50.1144 33.8886 45.9777 29.5259 40.6253C27.4122 37.9576 25.9918 35.7119 24.9603 33.4325C26.3469 32.1661 27.632 30.8492 28.8834 29.5828C29.3568 29.11 29.8303 28.6204 30.3037 28.1476C33.8547 24.6019 33.8547 20.0093 30.3037 16.4635L25.6875 11.854C25.1633 11.3306 24.6222 10.7903 24.1149 10.25C23.1003 9.20316 22.035 8.12254 20.9359 7.10947C19.2957 5.48855 17.3342 4.62744 15.2712 4.62744C13.2083 4.62744 11.2129 5.48855 9.52198 7.10947C9.50507 7.12636 9.50508 7.12636 9.48817 7.14324L3.73894 12.9346C1.57452 15.0959 0.340132 17.7299 0.06958 20.786C-0.336248 25.7163 1.11797 30.3088 2.23399 33.3143C4.97333 40.6928 9.06543 47.5311 15.1698 54.859C22.5761 63.6896 31.4874 70.6629 41.6669 75.5763C45.5561 77.4168 50.7473 79.5949 56.5473 79.9663C56.9024 79.9832 57.2744 80.0001 57.6126 80.0001C61.5187 80.0001 64.7991 78.5987 67.3693 75.8127C67.3863 75.779 67.4201 75.7621 67.437 75.7283C68.3163 74.6646 69.3308 73.7022 70.3961 72.6722C71.1233 71.9799 71.8673 71.2539 72.5944 70.4941C74.2684 68.755 75.1477 66.7288 75.1477 64.652C75.1477 62.5583 74.2515 60.5491 72.5436 58.8606L63.2603 49.5572ZM69.3139 67.3367C69.297 67.3367 69.297 67.3536 69.3139 67.3367C68.6545 68.0458 67.9781 68.6874 67.251 69.3966C66.1519 70.4434 65.0358 71.5409 63.9874 72.7735C62.2796 74.597 60.2674 75.4582 57.6295 75.4582C57.3758 75.4582 57.1053 75.4581 56.8516 75.4413C51.8295 75.1205 47.1625 73.1618 43.6622 71.4903C34.0915 66.8639 25.6875 60.2958 18.7038 51.9717C12.9377 45.0322 9.08234 38.6161 6.52901 31.7272C4.95642 27.5229 4.3815 24.2473 4.63514 21.1574C4.80424 19.1819 5.56516 17.5441 6.96865 16.1427L12.7348 10.3851C13.5634 9.60839 14.4426 9.18627 15.305 9.18627C16.3703 9.18627 17.2327 9.82788 17.7738 10.3682C17.7907 10.3851 17.8076 10.402 17.8245 10.4188C18.856 11.3813 19.8368 12.3775 20.8683 13.4412C21.3924 13.9815 21.9335 14.5218 22.4747 15.079L27.0909 19.6885C28.8834 21.4782 28.8834 23.1329 27.0909 24.9227C26.6006 25.4123 26.1271 25.902 25.6367 26.3747C24.2163 27.8268 22.8636 29.1776 21.3924 30.4946C21.3586 30.5283 21.3248 30.5452 21.3079 30.579C19.8537 32.0311 20.1242 33.4494 20.4286 34.4118C20.4455 34.4624 20.4624 34.5131 20.4793 34.5638C21.6799 37.4679 23.3709 40.2032 25.9411 43.4619L25.958 43.4788C30.625 49.2196 35.5457 53.694 40.9736 57.1215C41.6669 57.5605 42.3771 57.9151 43.0535 58.2528C43.6622 58.5567 44.2372 58.8437 44.7275 59.1477C44.7952 59.1814 44.8628 59.2321 44.9305 59.2659C45.5054 59.5529 46.0465 59.688 46.6045 59.688C48.008 59.688 48.8873 58.81 49.1747 58.5229L54.9578 52.7484C55.5327 52.1743 56.4458 51.4821 57.5111 51.4821C58.5595 51.4821 59.4219 52.1406 59.9461 52.7147C59.963 52.7315 59.963 52.7315 59.9799 52.7484L69.297 62.0518C71.0387 63.774 71.0387 65.5469 69.3139 67.3367Z" fill="black"/>
<path d="M43.2423 19.0299C47.6726 19.7728 51.697 21.8665 54.9098 25.0745C58.1227 28.2826 60.2025 32.3011 60.9634 36.7249C61.1494 37.8393 62.1133 38.6159 63.2124 38.6159C63.3477 38.6159 63.466 38.5991 63.6013 38.5822C64.8526 38.3796 65.6812 37.1976 65.4783 35.9482C64.5652 30.5958 62.0287 25.7161 58.1565 21.8496C54.2842 17.983 49.3974 15.4503 44.037 14.5386C42.7857 14.336 41.619 15.1633 41.3992 16.3959C41.1793 17.6284 41.991 18.8273 43.2423 19.0299Z" fill="black"/>
<path d="M79.9663 35.2897C78.4614 26.476 74.3017 18.4558 67.9099 12.0734C61.5181 5.69108 53.4861 1.53748 44.6593 0.0347509C43.4249 -0.184748 42.2582 0.659479 42.0384 1.89205C41.8354 3.14151 42.664 4.30654 43.9153 4.52604C51.7951 5.85992 58.9817 9.59141 64.6971 15.2815C70.4125 20.9885 74.1326 28.1644 75.4684 36.0326C75.6544 37.147 76.6183 37.9237 77.7174 37.9237C77.8526 37.9237 77.971 37.9068 78.1063 37.8899C79.3407 37.7042 80.1862 36.5223 79.9663 35.2897Z" fill="black"/>
</svg>
