<svg width="100" height="110" viewBox="0 0 100 110" fill="none" xmlns="http://www.w3.org/2000/svg">
<path d="M3.87854 15.7114C4.4833 16.3838 5.1592 16.9853 5.72838 17.6931C8.50315 20.9132 10.8866 24.5226 14.0527 27.2827C20.0291 32.4845 26.7526 36.5185 34.5077 38.7125C44.9308 41.6495 54.2867 39.5264 62.2553 32.3429C65.7771 29.1582 68.7297 25.3365 71.967 21.8332C73.2476 20.4532 74.5283 19.0377 76.058 17.9408C79.4731 15.5345 82.9949 16.0653 86.0187 18.8962C87.7973 20.5593 89.8962 21.904 91.8883 23.3548C92.3508 23.7087 92.9556 23.8856 93.4536 24.1687C96.6908 26.0088 97.4023 28.1674 96.0149 31.5998C93.7382 37.1555 89.7183 41.2603 84.7024 44.4096C77.2319 49.1514 68.872 51.2392 60.192 52.1592C51.7966 53.0439 43.5079 52.5485 35.4326 49.753C24.4758 45.9313 16.116 38.854 9.96168 29.229C7.57823 25.5134 5.69281 21.4794 3.59395 17.5869C3.34493 17.1269 3.30936 16.5607 3.20264 16.0299C3.45165 15.9237 3.6651 15.8176 3.87854 15.7114Z" fill="#E31E25"/>
<path d="M43.0801 95.1888C43.2936 95.755 43.4715 96.2504 43.7205 96.7104C44.8944 98.8336 46.7087 100.108 49.1989 100.037C51.7602 99.966 53.7523 98.7982 54.8195 96.3566C55.7089 94.3396 54.784 92.0748 52.4717 90.9071C50.9064 90.1286 49.1633 89.5978 47.4913 89.1024C43.4715 87.9347 39.8785 86.1653 37.2105 82.839C31.5186 75.7618 34.6491 64.8982 43.4359 61.2181C51.689 57.7502 61.3296 62.4212 63.6774 70.9847C63.8197 71.4801 63.8553 72.0109 63.9976 72.754C61.0805 73.3555 58.2702 74.0279 55.4243 74.4879C55.0685 74.5587 54.3926 73.6386 54.1081 73.0371C53.0053 70.6308 50.4795 69.3569 47.9538 70.0646C45.428 70.7723 43.7561 73.0371 44.2897 75.5495C44.5387 76.7526 45.3569 78.1681 46.3529 78.8404C48.0961 79.9728 50.1593 80.7159 52.1515 81.3528C55.8512 82.4852 59.3018 83.9714 61.8632 86.9438C66.4166 92.2518 65.8474 99.9306 60.5825 105.168C52.2582 113.448 38.0998 110.299 34.2934 99.329C33.6175 97.3474 33.6886 97.1705 35.7519 96.7458C38.1354 96.215 40.5544 95.7196 43.0801 95.1888Z" fill="#E31E25"/>
<path d="M87.832 89.7747C87.832 95.7196 87.7964 101.664 87.8676 107.645C87.8676 109.131 87.4051 109.626 85.911 109.556C83.9544 109.449 81.9979 109.449 80.0413 109.556C78.5828 109.626 78.1203 109.131 78.1203 107.645C78.1915 99.7536 78.1559 91.8625 78.1559 83.9713C78.1559 79.9727 78.1203 75.9387 78.1915 71.94C78.227 70.4538 77.6579 69.9938 76.2349 70.0292C73.3178 70.0999 70.4364 70.0292 67.5193 70.0646C66.3809 70.0999 65.9185 69.7461 65.954 68.543C66.0252 66.349 66.0252 64.1904 65.954 61.9965C65.9185 60.7934 66.4521 60.4749 67.5549 60.5103C77.8002 60.5457 88.0454 60.5457 98.2907 60.5103C99.4646 60.5103 100.034 60.8288 99.9983 62.1027C99.9271 64.2258 99.9271 66.349 99.9983 68.4722C100.034 69.7461 99.5358 70.0999 98.3263 70.0646C95.5515 69.9938 92.7412 70.0999 89.9664 70.0292C88.4012 69.9938 87.7608 70.4184 87.7964 72.117C87.8676 77.9911 87.832 83.9006 87.832 89.7747Z" fill="#E31E25"/>
<path d="M0 106.513C1.60083 103.823 3.1305 101.169 4.62461 98.586C6.22543 99.1522 7.68396 99.8953 9.21364 100.108C15.9015 101.098 21.1309 96.569 21.1309 89.8456C21.1309 80.8221 21.0242 71.834 20.9886 62.8105C20.9886 60.5104 20.9886 60.5104 23.3365 60.5104C25.2219 60.5104 27.1429 60.5458 29.0283 60.5104C30.1311 60.475 30.6291 60.8289 30.6291 62.032C30.6291 71.9756 30.9849 81.9545 30.6291 91.898C30.1667 105.522 14.5497 114.651 1.35181 107.503C0.889347 107.256 0.498034 106.902 0 106.513Z" fill="#E31E25"/>
<path d="M94.7692 0C98.0776 2.51242 98.3622 3.18476 97.3661 6.68799C96.7258 8.95271 95.9431 11.182 95.2672 13.4468C94.0222 17.587 94.0222 17.587 94.4846 21.5148C91.532 20.3117 89.0062 18.7193 87.4766 16.49C88.5794 15.5345 89.86 14.7914 90.6071 13.6945C93.0617 10.262 94.1645 6.29875 94.5558 2.12317C94.6269 1.52161 94.6981 0.884655 94.7692 0Z" fill="#E31E25"/>
</svg>
