<svg width="30" height="26" viewBox="0 0 30 26" fill="none" xmlns="http://www.w3.org/2000/svg">
<path d="M27.7998 20H10.2004C8.98526 20 8 21.3436 8 23.0006C8 24.6564 8.98526 26 10.2004 26H27.7998C29.0146 26 29.9998 24.6564 29.9998 23.0006C29.9998 21.3443 29.0146 20 27.7998 20Z"/>
<path d="M27.7998 10H10.2004C8.98526 10 8 11.3431 8 13.0003C8 14.6569 8.98526 16 10.2004 16H27.7998C29.0146 16 29.9998 14.6569 29.9998 13.0003C29.9998 11.3438 29.0146 10 27.7998 10Z"/>
<path d="M10.2004 6H27.7998C29.0146 6 29.9998 4.65688 29.9998 2.99968C29.9998 1.34248 29.0146 0 27.7998 0H10.2004C8.98526 0 8 1.34312 8 2.99968C8 4.65624 8.98526 6 10.2004 6Z"/>
<path d="M2.99997 6C4.65681 6 5.99995 4.65685 5.99995 3C5.99995 1.34315 4.65681 0 2.99997 0C1.34313 0 0 1.34315 0 3C0 4.65685 1.34313 6 2.99997 6Z"/>
<path d="M2.99997 16C4.65682 16 5.99995 14.6569 5.99995 13C5.99995 11.3431 4.65682 10 2.99997 10C1.34313 10 0 11.3431 0 13C0 14.6569 1.34313 16 2.99997 16Z"/>
<path d="M2.99997 26C4.65681 26 5.99995 24.6569 5.99995 23C5.99995 21.3431 4.65681 20 2.99997 20C1.34313 20 0 21.3431 0 23C0 24.6569 1.34313 26 2.99997 26Z"/>
</svg>
