<svg width="18" height="30" viewBox="0 0 18 30" fill="none" xmlns="http://www.w3.org/2000/svg">
<path d="M17.5113 13.8294L3.87664 0.479264C3.56129 0.170243 3.14032 0 2.69146 0C2.24259 0 1.82162 0.170243 1.50627 0.479264L0.502173 1.46218C-0.1512 2.10267 -0.1512 3.14363 0.502173 3.78314L11.9515 14.9938L0.489469 26.2169C0.174116 26.5259 0 26.9378 0 27.3771C0 27.8168 0.174116 28.2288 0.489469 28.5381L1.49356 29.5207C1.80917 29.8298 2.22989 30 2.67875 30C3.12762 30 3.54859 29.8298 3.86394 29.5207L17.5113 16.1584C17.8274 15.8484 18.001 15.4345 18 14.9945C18.001 14.5528 17.8274 14.1392 17.5113 13.8294Z"/>
</svg>
