<svg width="12" height="11" viewBox="0 0 12 11" fill="none" xmlns="http://www.w3.org/2000/svg">
<path d="M11.728 1.5416C11.5395 1.62919 11.3457 1.70312 11.1477 1.76314C11.3821 1.48535 11.5609 1.15849 11.67 0.800816C11.6945 0.720643 11.6691 0.632886 11.6062 0.580451C11.5434 0.527975 11.4561 0.52169 11.3869 0.564635C10.9663 0.825959 10.5126 1.01376 10.0368 1.12358C9.55755 0.632967 8.90661 0.35376 8.23368 0.35376C6.81324 0.35376 5.6576 1.56439 5.6576 3.05244C5.6576 3.16964 5.66469 3.28619 5.6787 3.40111C3.91606 3.23898 2.27737 2.33137 1.15208 0.885288C1.11198 0.833745 1.0502 0.805966 0.986947 0.811279C0.923657 0.816469 0.866792 0.853859 0.834818 0.911323C0.606587 1.3216 0.485929 1.79084 0.485929 2.26827C0.485929 2.91853 0.707541 3.53551 1.09901 4.0176C0.979979 3.97441 0.86447 3.92044 0.754225 3.85632C0.695038 3.82181 0.622806 3.82234 0.564006 3.85766C0.505168 3.89298 0.468278 3.95795 0.466729 4.02896C0.466458 4.04092 0.466458 4.05288 0.466458 4.06501C0.466458 5.03564 0.965115 5.90952 1.7275 6.38581C1.662 6.37896 1.59654 6.36903 1.53151 6.35601C1.46447 6.34259 1.39553 6.3672 1.35031 6.42077C1.30502 6.4743 1.29004 6.54892 1.31091 6.61705C1.5931 7.54003 2.31964 8.21893 3.19796 8.42591C2.46948 8.90391 1.63642 9.15429 0.76189 9.15429C0.579413 9.15429 0.395891 9.14305 0.216278 9.12079C0.127053 9.10968 0.0417371 9.16487 0.0113501 9.25376C-0.0190369 9.3427 0.0131695 9.44185 0.0890789 9.49282C1.21255 10.2475 2.5116 10.6464 3.84572 10.6464C6.46845 10.6464 8.10916 9.35068 9.02367 8.26374C10.1641 6.90842 10.8181 5.11448 10.8181 3.34195C10.8181 3.2679 10.817 3.19312 10.8148 3.11858C11.2648 2.76346 11.6521 2.33368 11.9673 1.8397C12.0152 1.76468 12.01 1.66553 11.9546 1.59647C11.8992 1.52736 11.8068 1.50502 11.728 1.5416Z" fill="#444444"/>
</svg>
