<svg width="21" height="20" viewBox="0 0 21 20" fill="none" xmlns="http://www.w3.org/2000/svg">
<path fill-rule="evenodd" clip-rule="evenodd" d="M3.86004 12.946C4.62582 12.1802 5.66443 11.75 6.7474 11.75H13.4141C14.497 11.75 15.5356 12.1802 16.3014 12.946C17.0672 13.7118 17.4974 14.7504 17.4974 15.8333V17.5C17.4974 17.9142 17.1616 18.25 16.7474 18.25C16.3332 18.25 15.9974 17.9142 15.9974 17.5V15.8333C15.9974 15.1482 15.7252 14.4911 15.2408 14.0066C14.7563 13.5222 14.0992 13.25 13.4141 13.25H6.7474C6.06225 13.25 5.40517 13.5222 4.9207 14.0066C4.43623 14.4911 4.16406 15.1482 4.16406 15.8333V17.5C4.16406 17.9142 3.82828 18.25 3.41406 18.25C2.99985 18.25 2.66406 17.9142 2.66406 17.5V15.8333C2.66406 14.7504 3.09427 13.7118 3.86004 12.946Z" fill="#444444"/>
<path fill-rule="evenodd" clip-rule="evenodd" d="M10.0804 3.25C8.65367 3.25 7.49707 4.4066 7.49707 5.83333C7.49707 7.26007 8.65367 8.41667 10.0804 8.41667C11.5071 8.41667 12.6637 7.26007 12.6637 5.83333C12.6637 4.4066 11.5071 3.25 10.0804 3.25ZM5.99707 5.83333C5.99707 3.57817 7.82524 1.75 10.0804 1.75C12.3356 1.75 14.1637 3.57817 14.1637 5.83333C14.1637 8.0885 12.3356 9.91667 10.0804 9.91667C7.82524 9.91667 5.99707 8.0885 5.99707 5.83333Z" fill="#444444"/>
</svg>
