<svg width="20" height="12" viewBox="0 0 20 12" fill="none" xmlns="http://www.w3.org/2000/svg">
<path d="M16.5964 6.80967C16.2731 6.42467 16.3656 6.25338 16.5964 5.90924C16.6006 5.90531 19.2698 2.42774 19.5448 1.24838L19.5465 1.2476C19.6832 0.81781 19.5465 0.501953 18.8857 0.501953H16.6989C16.1422 0.501953 15.8856 0.773024 15.748 1.07631C15.748 1.07631 14.6347 3.58902 13.0596 5.21781C12.5513 5.68845 12.3163 5.83931 12.0388 5.83931C11.9021 5.83931 11.6896 5.68845 11.6896 5.25867V1.2476C11.6896 0.732167 11.5337 0.501953 11.0729 0.501953H7.63443C7.28525 0.501953 7.07775 0.742382 7.07775 0.96631C7.07775 1.45502 7.86527 1.56738 7.94694 2.94238V5.92574C7.94694 6.57945 7.8211 6.69967 7.54193 6.69967C6.79857 6.69967 4.99434 4.17674 3.92514 1.28924C3.7093 0.729024 3.49845 0.502739 2.9376 0.502739H0.750026C0.125838 0.502739 0 0.77381 0 1.0771C0 1.61295 0.743359 4.27731 3.45679 7.79731C5.26518 10.2 7.81194 11.502 10.1287 11.502C11.5212 11.502 11.6912 11.2128 11.6912 10.7155C11.6912 8.4196 11.5654 8.20274 12.2629 8.20274C12.5863 8.20274 13.143 8.3536 14.443 9.51252C15.9289 10.8867 16.1731 11.502 17.0048 11.502H19.1915C19.8149 11.502 20.1307 11.2128 19.949 10.6424C19.5332 9.4426 16.7231 6.97467 16.5964 6.80967Z" fill="#444444"/>
</svg>
